<?xml version="1.0" encoding="utf-8"?>
<!-- Generator: Adobe Illustrator 23.0.1, SVG Export Plug-In . SVG Version: 6.00 Build 0)  -->
<svg version="1.1" id="Lager_1" xmlns="http://www.w3.org/2000/svg" xmlns:xlink="http://www.w3.org/1999/xlink" width="256.3573" height="178.27325" x="0px" y="0px"
	 viewBox="0 0 256.4 156.3" style="enable-background:new 0 0 256.4 156.3;" xml:space="preserve">
<style type="text/css">
	.st0{fill:#F9C231;}
</style>
<g>
	<path class="st0" d="M13,95.9c-0.5,0.1-1.2,0.3-2.3,0.4c-1.1,0.1-2,0.1-3,0.1s-1.9-0.1-2.6-0.3c-0.8-0.1-1.4-0.4-1.9-0.8
		c-0.5-0.4-1-1-1.2-1.6C1.7,93,1.6,92.1,1.6,91V60.4c0-1,0.3-1.6,0.8-2.2c0.5-0.5,1.2-1,2-1.2c1.5-0.5,3.1-1,5-1.1
		c1.9-0.3,3.8-0.4,5.7-0.4c6,0,10.6,1.2,13.7,3.8c3.1,2.6,4.8,6,4.8,10.5c0,2.2-0.3,4.1-1,5.7c-0.7,1.8-1.6,3.3-3,4.5
		c-1.4,1.2-3,2.2-5,2.9s-4.4,1-7.1,1H13C13,83.8,13,95.9,13,95.9z M16.3,74.9c1.8,0,3.3-0.4,4.2-1.2c1-0.8,1.5-2.2,1.5-3.9
		c0-1.6-0.5-3-1.5-3.8c-1.1-1-2.4-1.4-4.5-1.4c-0.7,0-1.2,0-1.8,0c-0.4,0-1,0.1-1.4,0.1v10.1h3.4V74.9z"/>
	<path class="st0" d="M51,63.5c2.3,0,4.5,0.3,6.4,0.7c1.9,0.5,3.5,1.2,4.9,2.2c1.4,1,2.4,2.2,3.1,3.7c0.7,1.5,1.1,3.3,1.1,5.3V90
		c0,1.1-0.3,2-1,2.7c-0.7,0.7-1.4,1.4-2.3,1.9c-2.9,1.6-6.8,2.6-12,2.6c-2.3,0-4.4-0.3-6.3-0.7c-1.9-0.4-3.4-1.1-4.8-1.9
		c-1.4-0.8-2.3-2-3.1-3.3C36.4,90,36,88.5,36,86.6c0-3,1-5.3,2.7-6.9s4.5-2.6,8.3-3l8.6-1v-0.4c0-1.2-0.5-2.2-1.6-2.7
		c-1.1-0.5-2.7-0.8-4.8-0.8c-1.6,0-3.3,0.1-4.9,0.5c-1.6,0.4-3,0.8-4.2,1.4c-0.5-0.4-1.1-1-1.5-1.8c-0.4-0.8-0.5-1.6-0.5-2.4
		c0-1.1,0.3-2,0.8-2.7c0.5-0.7,1.4-1.2,2.4-1.8c1.2-0.5,2.7-0.8,4.5-1.1C47.8,63.6,49.5,63.5,51,63.5z M51.5,89.1
		c0.7,0,1.5-0.1,2.4-0.3c1-0.1,1.5-0.4,2-0.7v-5.2l-4.8,0.4c-1.2,0.1-2.2,0.4-3,0.8c-0.8,0.4-1.2,1.1-1.2,1.9c0,0.8,0.3,1.6,1,2.2
		C48.8,88.8,49.9,89.1,51.5,89.1z"/>
	<path class="st0" d="M84.6,96.1c-0.4,0.1-1.1,0.3-2,0.4c-1,0.1-1.9,0.1-2.9,0.1s-1.8,0-2.6-0.1c-0.8-0.1-1.4-0.4-1.9-0.8
		c-0.5-0.4-1-1-1.2-1.6s-0.4-1.5-0.4-2.6V71.9c0-1,0.1-1.9,0.5-2.6s1-1.4,1.6-1.9s1.5-1.1,2.6-1.5c1.1-0.4,2.2-0.8,3.3-1.2
		c1.2-0.4,2.4-0.7,3.7-0.8c1.2-0.1,2.6-0.3,3.8-0.3c2,0,3.8,0.4,4.9,1.2c1.2,0.8,1.8,2.2,1.8,3.9c0,0.5-0.1,1.2-0.3,1.8
		c-0.1,0.5-0.4,1.1-0.7,1.6c-1,0-1.9,0-2.9,0.1c-1,0.1-1.9,0.3-2.9,0.4c-1,0.1-1.8,0.4-2.6,0.5s-1.5,0.4-2,0.7v22.2H84.6z"/>
	<path class="st0" d="M112.5,63.5c2.3,0,4.5,0.3,6.4,0.7c1.9,0.5,3.5,1.2,4.9,2.2s2.4,2.2,3.1,3.7c0.7,1.5,1.1,3.3,1.1,5.3V90
		c0,1.1-0.3,2-1,2.7c-0.7,0.7-1.4,1.4-2.3,1.9c-2.9,1.6-6.8,2.6-12,2.6c-2.3,0-4.4-0.3-6.3-0.7c-1.9-0.4-3.4-1.1-4.8-1.9
		c-1.4-0.8-2.3-2-3.1-3.3c-0.7-1.4-1.1-2.9-1.1-4.8c0-3,1-5.3,2.7-6.9s4.5-2.6,8.3-3l8.6-1v-0.4c0-1.2-0.5-2.2-1.6-2.7
		c-1.1-0.5-2.7-0.8-4.8-0.8c-1.6,0-3.3,0.1-4.9,0.5c-1.6,0.4-3,0.8-4.2,1.4c-0.5-0.4-1.1-1-1.5-1.8c-0.4-0.8-0.5-1.6-0.5-2.4
		c0-1.1,0.3-2,0.8-2.7s1.4-1.2,2.4-1.8c1.2-0.5,2.7-0.8,4.5-1.1C109.2,63.6,110.9,63.5,112.5,63.5z M112.9,89.1
		c0.7,0,1.5-0.1,2.4-0.3c1-0.1,1.5-0.4,2-0.7v-5.2l-4.8,0.4c-1.2,0.1-2.2,0.4-3,0.8c-0.8,0.4-1.2,1.1-1.2,1.9c0,0.8,0.3,1.6,1,2.2
		C110.2,88.8,111.4,89.1,112.9,89.1z"/>
	<path class="st0" d="M146.2,96.1c-0.5,0.1-1.2,0.3-2.2,0.4c-1,0.1-1.9,0.3-2.9,0.3c-1,0-1.8,0-2.6-0.1s-1.4-0.4-1.9-0.8
		c-0.5-0.4-1-1-1.2-1.6s-0.4-1.5-0.4-2.6V53.5c0.5-0.1,1.2-0.3,2.2-0.4c1-0.1,1.9-0.3,2.9-0.3s1.8,0,2.6,0.1s1.4,0.4,1.9,0.8
		c0.5,0.4,1,1,1.2,1.6c0.3,0.7,0.4,1.5,0.4,2.6V96.1z"/>
	<path class="st0" d="M152.9,55.6c0-1.6,0.5-3,1.6-4.2c1.1-1.1,2.6-1.6,4.4-1.6s3.3,0.5,4.4,1.6c1.1,1.1,1.6,2.6,1.6,4.2
		c0,1.6-0.5,3-1.6,4.2c-1.1,1.1-2.6,1.6-4.4,1.6c-1.8,0-3.3-0.5-4.4-1.6C153.5,58.7,152.9,57.2,152.9,55.6z M164.6,96.1
		c-0.5,0.1-1.2,0.3-2.2,0.4c-1,0.1-1.9,0.3-2.9,0.3c-1,0-1.8,0-2.6-0.1c-0.8-0.1-1.4-0.4-1.9-0.8c-0.5-0.4-1-1-1.2-1.6
		c-0.3-0.7-0.4-1.5-0.4-2.6V64.8c0.5-0.1,1.2-0.3,2.2-0.4c1-0.1,1.9-0.3,2.9-0.3c1,0,1.8,0,2.6,0.1s1.4,0.4,1.9,0.8
		c0.5,0.4,1,1,1.2,1.6s0.4,1.5,0.4,2.6V96.1z"/>
	<path class="st0" d="M171.7,64.4c0-2.2,0.4-4.1,1.1-5.7c0.8-1.6,1.8-2.9,3.1-3.9c1.4-1.1,2.9-1.8,4.6-2.3c1.8-0.5,3.7-0.7,5.7-0.7
		c3.3,0,5.6,0.4,7.1,1.2c1.5,0.8,2.3,2.3,2.3,4.4c0,0.8-0.1,1.6-0.5,2.3c-0.4,0.7-0.8,1.2-1.2,1.6c-0.8-0.3-1.6-0.4-2.6-0.5
		c-1-0.1-1.9-0.3-3.1-0.3c-1.9,0-3.3,0.3-4.4,1c-1.1,0.7-1.6,1.8-1.6,3.3v2h10.8c0.3,0.5,0.5,1.1,0.8,1.8c0.3,0.7,0.4,1.5,0.4,2.4
		c0,1.5-0.3,2.6-1,3.3s-1.6,1-2.7,1H183v20.7c-0.4,0.1-1.1,0.3-2,0.4c-1,0.1-1.9,0.1-2.9,0.1c-1,0-1.8,0-2.6-0.1
		c-0.8-0.1-1.4-0.4-1.9-0.8c-0.5-0.4-1-1-1.2-1.6c-0.3-0.7-0.4-1.5-0.4-2.6V64.4H171.7z"/>
	<path class="st0" d="M215.1,97.2c-2.6,0-4.9-0.4-7.2-1.1c-2.2-0.7-4.1-1.8-5.7-3.3c-1.6-1.5-2.9-3.3-3.8-5.4
		c-1-2.2-1.4-4.8-1.4-7.6s0.4-5.3,1.4-7.3c1-2,2.2-3.8,3.7-5c1.5-1.4,3.3-2.3,5.2-3c1.9-0.7,3.9-1,6-1c2.3,0,4.4,0.4,6.3,1.1
		c1.9,0.7,3.5,1.6,4.9,2.9c1.4,1.2,2.4,2.7,3.3,4.4c0.8,1.6,1.1,3.5,1.1,5.6c0,1.5-0.4,2.6-1.2,3.4c-0.8,0.8-2,1.2-3.4,1.5
		l-16.2,2.4c0.5,1.5,1.5,2.4,3,3.3c1.5,0.7,3.1,1.1,5,1.1c1.8,0,3.5-0.3,5-0.7c1.5-0.4,2.9-1,3.9-1.6c0.7,0.4,1.2,1.1,1.8,1.8
		c0.5,0.8,0.7,1.6,0.7,2.4c0,1.9-1,3.4-2.7,4.4c-1.4,0.7-3,1.2-4.8,1.5C218.1,97.1,216.6,97.2,215.1,97.2z M213.2,71.5
		c-1.1,0-1.9,0.1-2.7,0.5c-0.8,0.4-1.4,0.8-1.9,1.4c-0.5,0.5-0.8,1.1-1.1,1.8c-0.3,0.7-0.4,1.4-0.4,2l11.2-1.8
		c-0.1-0.8-0.5-1.8-1.5-2.6C216.1,71.9,214.8,71.5,213.2,71.5z"/>
	<path class="st0" d="M245.2,96.1c-0.4,0.1-1.1,0.3-2,0.4c-1,0.1-1.9,0.1-2.9,0.1c-1,0-1.8,0-2.6-0.1c-0.8-0.1-1.4-0.4-1.9-0.8
		c-0.5-0.4-1-1-1.2-1.6c-0.3-0.7-0.4-1.5-0.4-2.6V71.9c0-1,0.1-1.9,0.5-2.6c0.4-0.7,1-1.4,1.6-1.9s1.5-1.1,2.6-1.5s2.2-0.8,3.3-1.2
		c1.2-0.4,2.4-0.7,3.7-0.8c1.2-0.1,2.6-0.3,3.8-0.3c2,0,3.8,0.4,4.9,1.2c1.2,0.8,1.8,2.2,1.8,3.9c0,0.5-0.1,1.2-0.3,1.8
		c-0.1,0.5-0.4,1.1-0.7,1.6c-1,0-1.9,0-2.9,0.1c-1,0.1-1.9,0.3-2.9,0.4c-1,0.1-1.8,0.4-2.6,0.5c-0.8,0.1-1.5,0.4-2,0.7v22.2H245.2z"
		/>
</g>
</svg>
