<?xml version="1.0" encoding="utf-8"?>
<!-- Generator: Adobe Illustrator 23.0.1, SVG Export Plug-In . SVG Version: 6.00 Build 0)  -->
<svg version="1.1" id="Lager_1" xmlns="http://www.w3.org/2000/svg" xmlns:xlink="http://www.w3.org/1999/xlink" x="0px" y="0px"
	 viewBox="0 0 200 200" style="enable-background:new 0 0 200 200;" xml:space="preserve" width="256.3573" height="156.27325">
<style type="text/css">
	.st0{fill:#F9C231;}
</style>
<g>
	<path class="st0" d="M15.8,110.5c-0.4,0.1-0.9,0.2-1.7,0.3c-0.8,0.1-1.5,0.1-2.2,0.1c-0.7,0-1.4-0.1-1.9-0.2
		c-0.6-0.1-1-0.3-1.4-0.6c-0.4-0.3-0.7-0.7-0.9-1.2c-0.2-0.5-0.3-1.2-0.3-2V84.4c0-0.7,0.2-1.2,0.6-1.6c0.4-0.4,0.9-0.7,1.5-0.9
		c1.1-0.4,2.3-0.7,3.7-0.8c1.4-0.2,2.8-0.3,4.2-0.3c4.4,0,7.8,0.9,10.1,2.8c2.3,1.9,3.5,4.4,3.5,7.7c0,1.6-0.2,3-0.7,4.2
		c-0.5,1.3-1.2,2.4-2.2,3.3c-1,0.9-2.2,1.6-3.7,2.1c-1.5,0.5-3.2,0.7-5.2,0.7h-3.4V110.5z M18.2,95.1c1.3,0,2.4-0.3,3.1-0.9
		c0.7-0.6,1.1-1.6,1.1-2.9c0-1.2-0.4-2.2-1.1-2.8c-0.8-0.7-1.8-1-3.3-1c-0.5,0-0.9,0-1.3,0c-0.3,0-0.7,0.1-1,0.1v7.4H18.2z"/>
	<path class="st0" d="M43.7,86.7c1.7,0,3.3,0.2,4.7,0.5c1.4,0.4,2.6,0.9,3.6,1.6c1,0.7,1.8,1.6,2.3,2.7c0.5,1.1,0.8,2.4,0.8,3.9
		v10.8c0,0.8-0.2,1.5-0.7,2c-0.5,0.5-1,1-1.7,1.4c-2.1,1.2-5,1.9-8.8,1.9c-1.7,0-3.2-0.2-4.6-0.5c-1.4-0.3-2.5-0.8-3.5-1.4
		c-1-0.6-1.7-1.5-2.3-2.4c-0.5-1-0.8-2.1-0.8-3.5c0-2.2,0.7-3.9,2-5.1c1.3-1.2,3.3-1.9,6.1-2.2l6.3-0.7v-0.3c0-0.9-0.4-1.6-1.2-2
		c-0.8-0.4-2-0.6-3.5-0.6c-1.2,0-2.4,0.1-3.6,0.4c-1.2,0.3-2.2,0.6-3.1,1c-0.4-0.3-0.8-0.7-1.1-1.3c-0.3-0.6-0.4-1.2-0.4-1.8
		c0-0.8,0.2-1.5,0.6-2c0.4-0.5,1-0.9,1.8-1.3c0.9-0.4,2-0.6,3.3-0.8C41.4,86.8,42.6,86.7,43.7,86.7z M44.1,105.5
		c0.5,0,1.1-0.1,1.8-0.2c0.7-0.1,1.1-0.3,1.5-0.5v-3.8l-3.5,0.3c-0.9,0.1-1.6,0.3-2.2,0.6c-0.6,0.3-0.9,0.8-0.9,1.4
		c0,0.6,0.2,1.2,0.7,1.6C42.1,105.3,42.9,105.5,44.1,105.5z"/>
	<path class="st0" d="M68.4,110.7c-0.3,0.1-0.8,0.2-1.5,0.3c-0.7,0.1-1.4,0.1-2.1,0.1c-0.7,0-1.3,0-1.9-0.1c-0.6-0.1-1-0.3-1.4-0.6
		c-0.4-0.3-0.7-0.7-0.9-1.2c-0.2-0.5-0.3-1.1-0.3-1.9V92.9c0-0.7,0.1-1.4,0.4-1.9c0.3-0.5,0.7-1,1.2-1.4c0.5-0.4,1.1-0.8,1.9-1.1
		c0.8-0.3,1.6-0.6,2.4-0.9c0.9-0.3,1.8-0.5,2.7-0.6c0.9-0.1,1.9-0.2,2.8-0.2c1.5,0,2.8,0.3,3.6,0.9c0.9,0.6,1.3,1.6,1.3,2.9
		c0,0.4-0.1,0.9-0.2,1.3c-0.1,0.4-0.3,0.8-0.5,1.2c-0.7,0-1.4,0-2.1,0.1c-0.7,0.1-1.4,0.2-2.1,0.3c-0.7,0.1-1.3,0.3-1.9,0.4
		c-0.6,0.1-1.1,0.3-1.5,0.5V110.7z"/>
	<path class="st0" d="M88.9,86.7c1.7,0,3.3,0.2,4.7,0.5c1.4,0.4,2.6,0.9,3.6,1.6c1,0.7,1.8,1.6,2.3,2.7c0.5,1.1,0.8,2.4,0.8,3.9
		v10.8c0,0.8-0.2,1.5-0.7,2c-0.5,0.5-1,1-1.7,1.4c-2.1,1.2-5,1.9-8.8,1.9c-1.7,0-3.2-0.2-4.6-0.5c-1.4-0.3-2.5-0.8-3.5-1.4
		c-1-0.6-1.7-1.5-2.3-2.4c-0.5-1-0.8-2.1-0.8-3.5c0-2.2,0.7-3.9,2-5.1c1.3-1.2,3.3-1.9,6.1-2.2l6.3-0.7v-0.3c0-0.9-0.4-1.6-1.2-2
		c-0.8-0.4-2-0.6-3.5-0.6c-1.2,0-2.4,0.1-3.6,0.4c-1.2,0.3-2.2,0.6-3.1,1c-0.4-0.3-0.8-0.7-1.1-1.3c-0.3-0.6-0.4-1.2-0.4-1.8
		c0-0.8,0.2-1.5,0.6-2c0.4-0.5,1-0.9,1.8-1.3c0.9-0.4,2-0.6,3.3-0.8C86.5,86.8,87.7,86.7,88.9,86.7z M89.2,105.5
		c0.5,0,1.1-0.1,1.8-0.2c0.7-0.1,1.1-0.3,1.5-0.5v-3.8l-3.5,0.3c-0.9,0.1-1.6,0.3-2.2,0.6c-0.6,0.3-0.9,0.8-0.9,1.4
		c0,0.6,0.2,1.2,0.7,1.6C87.2,105.3,88.1,105.5,89.2,105.5z"/>
	<path class="st0" d="M113.7,110.7c-0.4,0.1-0.9,0.2-1.6,0.3c-0.7,0.1-1.4,0.2-2.1,0.2c-0.7,0-1.3,0-1.9-0.1c-0.6-0.1-1-0.3-1.4-0.6
		c-0.4-0.3-0.7-0.7-0.9-1.2c-0.2-0.5-0.3-1.1-0.3-1.9V79.4c0.4-0.1,0.9-0.2,1.6-0.3c0.7-0.1,1.4-0.2,2.1-0.2c0.7,0,1.3,0,1.9,0.1
		c0.6,0.1,1,0.3,1.4,0.6c0.4,0.3,0.7,0.7,0.9,1.2c0.2,0.5,0.3,1.1,0.3,1.9V110.7z"/>
	<path class="st0" d="M118.6,80.9c0-1.2,0.4-2.2,1.2-3.1c0.8-0.8,1.9-1.2,3.2-1.2c1.3,0,2.4,0.4,3.2,1.2c0.8,0.8,1.2,1.9,1.2,3.1
		c0,1.2-0.4,2.2-1.2,3.1c-0.8,0.8-1.9,1.2-3.2,1.2c-1.3,0-2.4-0.4-3.2-1.2C119,83.2,118.6,82.1,118.6,80.9z M127.2,110.7
		c-0.4,0.1-0.9,0.2-1.6,0.3c-0.7,0.1-1.4,0.2-2.1,0.2c-0.7,0-1.3,0-1.9-0.1c-0.6-0.1-1-0.3-1.4-0.6c-0.4-0.3-0.7-0.7-0.9-1.2
		c-0.2-0.5-0.3-1.1-0.3-1.9V87.7c0.4-0.1,0.9-0.2,1.6-0.3c0.7-0.1,1.4-0.2,2.1-0.2c0.7,0,1.3,0,1.9,0.1c0.6,0.1,1,0.3,1.4,0.6
		c0.4,0.3,0.7,0.7,0.9,1.2c0.2,0.5,0.3,1.1,0.3,1.9V110.7z"/>
	<path class="st0" d="M132.4,87.4c0-1.6,0.3-3,0.8-4.2c0.6-1.2,1.3-2.1,2.3-2.9c1-0.8,2.1-1.3,3.4-1.7c1.3-0.4,2.7-0.5,4.2-0.5
		c2.4,0,4.1,0.3,5.2,0.9c1.1,0.6,1.7,1.7,1.7,3.2c0,0.6-0.1,1.2-0.4,1.7c-0.3,0.5-0.6,0.9-0.9,1.2c-0.6-0.2-1.2-0.3-1.9-0.4
		c-0.7-0.1-1.4-0.2-2.3-0.2c-1.4,0-2.4,0.2-3.2,0.7c-0.8,0.5-1.2,1.3-1.2,2.4v1.5h7.9c0.2,0.4,0.4,0.8,0.6,1.3
		c0.2,0.5,0.3,1.1,0.3,1.8c0,1.1-0.2,1.9-0.7,2.4s-1.2,0.7-2,0.7h-5.5v15.2c-0.3,0.1-0.8,0.2-1.5,0.3c-0.7,0.1-1.4,0.1-2.1,0.1
		c-0.7,0-1.3,0-1.9-0.1c-0.6-0.1-1-0.3-1.4-0.6s-0.7-0.7-0.9-1.2c-0.2-0.5-0.3-1.1-0.3-1.9V87.4z"/>
	<path class="st0" d="M164.3,111.5c-1.9,0-3.6-0.3-5.3-0.8c-1.6-0.5-3-1.3-4.2-2.4c-1.2-1.1-2.1-2.4-2.8-4s-1-3.5-1-5.6
		c0-2.1,0.3-3.9,1-5.4c0.7-1.5,1.6-2.8,2.7-3.7c1.1-1,2.4-1.7,3.8-2.2c1.4-0.5,2.9-0.7,4.4-0.7c1.7,0,3.2,0.3,4.6,0.8
		c1.4,0.5,2.6,1.2,3.6,2.1c1,0.9,1.8,2,2.4,3.2c0.6,1.2,0.8,2.6,0.8,4.1c0,1.1-0.3,1.9-0.9,2.5c-0.6,0.6-1.5,0.9-2.5,1.1l-11.9,1.8
		c0.4,1.1,1.1,1.8,2.2,2.4c1.1,0.5,2.3,0.8,3.7,0.8c1.3,0,2.6-0.2,3.7-0.5s2.1-0.7,2.9-1.2c0.5,0.3,0.9,0.8,1.3,1.3
		c0.4,0.6,0.5,1.2,0.5,1.8c0,1.4-0.7,2.5-2,3.2c-1,0.5-2.2,0.9-3.5,1.1S165.4,111.5,164.3,111.5z M162.9,92.6c-0.8,0-1.4,0.1-2,0.4
		c-0.6,0.3-1,0.6-1.4,1c-0.4,0.4-0.6,0.8-0.8,1.3s-0.3,1-0.3,1.5l8.2-1.3c-0.1-0.6-0.4-1.3-1.1-1.9C165,92.9,164.1,92.6,162.9,92.6z
		"/>
	<path class="st0" d="M186.4,110.7c-0.3,0.1-0.8,0.2-1.5,0.3c-0.7,0.1-1.4,0.1-2.1,0.1c-0.7,0-1.3,0-1.9-0.1c-0.6-0.1-1-0.3-1.4-0.6
		c-0.4-0.3-0.7-0.7-0.9-1.2c-0.2-0.5-0.3-1.1-0.3-1.9V92.9c0-0.7,0.1-1.4,0.4-1.9c0.3-0.5,0.7-1,1.2-1.4c0.5-0.4,1.1-0.8,1.9-1.1
		s1.6-0.6,2.4-0.9c0.9-0.3,1.8-0.5,2.7-0.6c0.9-0.1,1.9-0.2,2.8-0.2c1.5,0,2.8,0.3,3.6,0.9c0.9,0.6,1.3,1.6,1.3,2.9
		c0,0.4-0.1,0.9-0.2,1.3c-0.1,0.4-0.3,0.8-0.5,1.2c-0.7,0-1.4,0-2.1,0.1c-0.7,0.1-1.4,0.2-2.1,0.3c-0.7,0.1-1.3,0.3-1.9,0.4
		c-0.6,0.1-1.1,0.3-1.5,0.5V110.7z"/>
</g>
</svg>
